<?xml version="1.0" standalone="no"?>
<!DOCTYPE svg PUBLIC "-//W3C//DTD SVG 20010904//EN"
 "http://www.w3.org/TR/2001/REC-SVG-20010904/DTD/svg10.dtd">
<svg version="1.0" xmlns="http://www.w3.org/2000/svg"
 width="1080.000000pt" height="382.000000pt" viewBox="0 0 1080.000000 382.000000"
 preserveAspectRatio="xMidYMid meet">

<g transform="translate(0.000000,382.000000) scale(0.100000,-0.100000)"
fill="#000000" stroke="none">
<path d="M1582 2752 c-16 -15 -33 -42 -36 -59 -9 -40 14 -96 48 -118 l26 -17
0 -184 0 -184 35 0 35 0 0 180 0 181 34 29 c38 34 52 82 36 124 -29 77 -120
102 -178 48z m136 -28 c30 -34 29 -83 -3 -118 -63 -68 -174 15 -133 101 27 57
93 65 136 17z"/>
<path d="M2602 2633 c-18 -8 -40 -29 -49 -44 l-17 -29 -232 0 c-212 0 -232 -2
-239 -17 -3 -10 -5 -97 -4 -193 l2 -175 -346 -3 -347 -2 0 -135 0 -135 -150 0
-150 0 0 205 0 206 35 35 c31 30 35 41 35 85 0 45 -4 55 -34 85 -57 57 -128
43 -168 -32 -21 -41 -22 -46 -8 -86 10 -28 26 -50 47 -63 l32 -20 1 -247 0
-248 180 0 180 0 0 -195 0 -195 -175 0 -176 0 -38 40 c-33 34 -44 40 -80 40
-35 0 -48 -6 -72 -31 -74 -79 -24 -199 82 -199 24 0 41 10 70 40 l38 40 176 0
175 0 0 -125 0 -125 125 0 125 0 0 -155 0 -155 -205 0 c-124 0 -205 4 -205 10
0 15 -51 58 -78 65 -34 8 -88 -12 -112 -42 -46 -58 -13 -163 57 -182 31 -9 44
-7 80 10 28 13 45 29 49 45 6 22 35 38 60 33 5 -1 102 -1 217 0 l207 1 0 185
0 185 190 0 190 0 0 -182 0 -183 -36 -30 c-31 -27 -37 -38 -42 -83 -4 -49 -3
-53 32 -88 34 -34 40 -36 82 -31 53 6 91 36 102 81 12 47 3 75 -39 117 l-39
39 0 180 0 180 155 0 154 0 3 138 3 137 145 0 145 0 3 -211 2 -211 -26 -17
c-33 -22 -57 -79 -49 -117 10 -44 51 -87 89 -95 40 -7 88 15 112 50 34 54 7
154 -46 171 -19 6 -20 16 -20 256 l0 249 -180 0 -180 0 0 195 0 195 178 0
c177 0 179 0 191 -23 17 -32 62 -57 101 -57 50 0 100 55 100 110 0 75 -39 119
-106 120 -45 0 -88 -26 -99 -60 -6 -20 -14 -20 -183 -18 l-177 3 -3 123 -3
122 -154 0 -155 0 0 160 0 160 200 0 201 0 33 -34 c38 -38 66 -46 113 -34 40
10 83 65 83 104 0 39 -32 89 -69 109 -37 19 -48 19 -89 -2z m111 -44 c17 -21
23 -73 11 -104 -8 -19 -55 -45 -83 -45 -32 0 -71 41 -78 82 -5 32 -1 41 26 69
28 27 37 31 69 26 20 -4 45 -16 55 -28z m-1637 -77 c22 -15 44 -57 44 -84 0
-36 -37 -77 -77 -84 -27 -5 -37 -1 -63 24 -18 18 -30 41 -30 57 0 35 25 82 47
88 29 8 67 7 79 -1z m1285 -454 c0 -18 1 -220 0 -448 l0 -415 -456 -3 -455 -2
0 450 0 450 455 0 455 0 1 -32z m607 -114 c31 -36 29 -79 -7 -115 -52 -52
-126 -29 -138 44 -14 89 85 138 145 71z m-2009 -485 c55 -59 19 -149 -59 -149
-47 0 -80 35 -80 85 0 50 33 85 80 85 27 0 45 -7 59 -21z m1873 -546 c39 -35
28 -120 -18 -142 -39 -17 -69 -13 -98 14 -61 57 -7 166 74 149 14 -3 32 -12
42 -21z m-1668 -88 c44 -41 34 -114 -21 -143 -36 -19 -63 -14 -94 19 -38 41
-38 81 0 120 37 37 78 38 115 4z m999 -146 c38 -47 11 -130 -47 -145 -62 -15
-122 64 -94 123 26 55 103 67 141 22z"/>
<path d="M3652 2195 c-147 -35 -233 -178 -219 -361 13 -173 106 -266 279 -280
51 -4 94 -1 142 10 38 9 77 14 87 11 18 -6 19 1 19 84 0 50 -2 91 -4 91 -3 0
-15 -21 -28 -46 -97 -194 -261 -188 -303 12 -19 91 -19 258 1 344 44 193 215
181 305 -22 15 -34 34 -37 25 -5 -3 12 -6 52 -6 90 0 66 -1 67 -23 62 -13 -4
-51 1 -84 9 -72 19 -118 19 -191 1z"/>
<path d="M4246 2194 c-139 -43 -206 -146 -206 -320 0 -154 49 -249 153 -295
75 -34 222 -34 289 -1 105 52 158 153 158 301 0 176 -66 281 -202 317 -67 17
-129 17 -192 -2z m142 -5 c19 -7 37 -23 49 -47 16 -33 18 -64 18 -262 0 -209
-1 -227 -21 -260 -26 -45 -59 -62 -107 -56 -50 6 -82 37 -96 91 -14 57 -14
398 0 450 22 81 79 111 157 84z"/>
<path d="M6570 2196 c-73 -21 -94 -32 -132 -70 -58 -58 -82 -118 -86 -221 -5
-108 9 -179 48 -237 66 -99 191 -136 354 -103 51 10 105 15 120 11 l26 -6 0
124 c0 110 2 125 18 129 9 3 -41 5 -113 5 -71 0 -116 -3 -100 -7 l30 -6 3
-107 c2 -97 1 -109 -18 -128 -43 -43 -130 -14 -160 53 -29 64 -41 202 -30 332
10 124 20 158 57 197 73 76 174 33 254 -109 28 -50 39 -54 35 -15 -2 15 -4 55
-5 90 -1 60 -2 62 -24 57 -13 -4 -51 1 -84 9 -72 19 -131 19 -193 2z"/>
<path d="M8814 2196 c-161 -39 -253 -214 -214 -408 29 -147 109 -219 260 -232
55 -5 61 -4 35 5 -47 18 -83 58 -102 113 -14 41 -18 84 -18 216 0 158 1 167
27 222 64 137 195 111 279 -56 27 -56 44 -60 35 -8 -3 20 -6 61 -6 90 0 50 -1
52 -23 47 -13 -4 -51 1 -84 9 -71 19 -118 19 -189 2z"/>
<path d="M10014 2192 c-93 -38 -140 -110 -131 -199 11 -104 61 -151 211 -198
101 -32 143 -62 152 -110 19 -101 -108 -158 -211 -95 -39 24 -96 85 -126 135
l-24 40 -3 -30 c-2 -16 -1 -63 3 -103 5 -58 9 -71 20 -62 9 7 39 6 106 -6 57
-9 113 -13 142 -9 118 15 198 118 184 237 -12 97 -60 138 -221 190 -117 37
-146 60 -146 115 0 49 21 78 65 93 61 20 110 5 169 -54 29 -28 58 -63 66 -78
7 -16 17 -28 22 -28 10 0 10 18 2 97 -6 50 -9 60 -24 56 -9 -2 -44 3 -77 11
-77 20 -127 19 -179 -2z"/>
<path d="M4735 2191 c17 -3 29 -10 28 -14 -2 -4 -3 -142 -3 -306 l0 -300 -27
-4 c-16 -3 60 -4 167 -3 174 2 201 4 250 24 67 26 126 81 154 142 31 69 35
217 7 292 -39 102 -104 150 -228 168 -74 10 -397 12 -348 1z m342 -26 c50 -33
67 -95 71 -254 7 -260 -37 -341 -184 -341 l-34 0 0 303 c0 167 3 307 8 311 12
13 111 -1 139 -19z"/>
<path d="M5428 2193 l22 -4 -2 -307 -3 -306 -25 -7 c-14 -4 38 -7 115 -7 77 0
129 3 115 7 l-25 7 -3 302 -2 303 22 9 c16 6 -20 8 -107 8 -71 0 -120 -3 -107
-5z"/>
<path d="M5738 2193 c7 -3 16 -2 19 1 4 3 -2 6 -13 5 -11 0 -14 -3 -6 -6z"/>
<path d="M5775 1888 l0 -312 -25 -7 c-17 -5 -5 -7 35 -7 40 0 52 2 35 7 l-25
7 -3 282 c-3 306 1 325 46 234 33 -67 252 -483 269 -509 11 -20 22 -23 73 -23
l60 0 0 314 0 315 23 4 c12 2 -3 4 -33 4 -30 0 -45 -2 -32 -4 l22 -4 0 -227
c0 -193 -2 -224 -14 -207 -7 11 -55 101 -106 200 -51 99 -101 195 -112 213
l-20 32 -96 0 -97 0 0 -312z"/>
<path d="M7023 2194 l27 -5 -2 -307 -3 -307 -30 -7 c-16 -4 62 -6 175 -5 184
2 210 5 250 23 100 47 131 138 81 233 -13 23 -56 48 -116 67 l-40 12 30 11
c80 29 118 74 118 140 0 56 -26 96 -80 122 -43 21 -62 23 -243 25 -107 1 -183
0 -167 -2z m286 -23 c26 -26 35 -77 28 -164 -5 -81 -25 -107 -83 -107 l-34 0
0 145 0 145 35 0 c21 0 43 -8 54 -19z m-4 -295 c47 -20 55 -42 55 -146 0 -131
-19 -159 -107 -160 l-33 0 0 153 c0 85 3 157 7 160 10 11 41 8 78 -7z"/>
<path d="M7615 2191 l30 -6 0 -305 0 -305 -30 -6 c-16 -4 35 -6 115 -6 80 0
133 2 118 4 l-28 4 0 160 0 159 34 0 c19 0 44 -8 56 -18 21 -17 24 -30 30
-133 3 -63 12 -125 19 -137 32 -59 182 -71 217 -17 18 28 35 85 25 85 -4 0
-11 -15 -16 -32 -8 -26 -15 -33 -35 -33 -25 0 -25 2 -31 100 -3 55 -11 110
-17 122 -13 24 -61 53 -87 53 -8 0 -15 5 -15 10 0 6 9 10 20 10 92 0 150 125
102 220 -24 49 -68 67 -187 74 -78 4 -91 3 -59 -5 59 -14 77 -38 82 -109 9
-122 -23 -180 -98 -180 l-41 0 3 150 3 150 -120 -1 c-66 -1 -106 -4 -90 -8z"/>
<path d="M8278 2193 l22 -4 0 -309 0 -309 -27 -4 c-16 -2 35 -4 112 -5 77 0
129 3 115 7 l-25 7 -3 302 -2 303 22 9 c16 6 -20 8 -107 8 -71 0 -120 -3 -107
-5z"/>
<path d="M9238 2193 l22 -4 0 -309 0 -309 -27 -4 c-16 -2 35 -4 112 -5 77 0
129 3 115 7 l-25 7 -3 147 c-1 88 1 147 7 147 7 0 161 -282 161 -296 0 -1 -10
-5 -22 -7 -13 -2 42 -4 122 -4 80 0 134 2 120 4 -21 4 -41 35 -132 213 -60
115 -108 215 -108 223 0 25 148 181 178 188 15 4 -6 6 -48 6 -41 0 -60 -2 -42
-4 17 -2 32 -7 32 -10 0 -7 -38 -52 -125 -148 -40 -44 -85 -95 -100 -113 -16
-19 -31 -30 -37 -24 -5 5 -7 71 -6 147 3 139 3 139 28 146 14 4 -36 7 -110 7
-74 -1 -125 -3 -112 -5z"/>
<path d="M9089 1708 c-35 -69 -80 -119 -123 -139 -50 -22 -42 -23 49 -4 38 8
78 12 87 9 16 -5 18 3 18 85 0 50 -2 91 -5 91 -2 0 -14 -19 -26 -42z"/>
<path d="M3670 1231 c-5 -11 -10 -27 -10 -36 0 -8 -7 -18 -16 -22 -15 -5 -15
-7 0 -15 12 -7 16 -25 16 -73 0 -86 18 -84 22 2 3 62 5 68 28 74 l25 7 -27 1
c-23 1 -28 6 -28 25 0 30 20 47 48 39 13 -3 22 -1 22 6 0 20 -68 13 -80 -8z"/>
<path d="M4056 1243 c-11 -11 -6 -23 9 -23 8 0 15 4 15 9 0 13 -16 22 -24 14z"/>
<path d="M5010 1210 l0 -40 -39 6 c-31 5 -43 2 -60 -15 -44 -44 -16 -144 39
-142 14 1 40 2 58 3 24 1 32 5 28 15 -4 8 -6 59 -6 114 0 59 -4 99 -10 99 -5
0 -10 -18 -10 -40z m-7 -64 c4 -6 6 -31 5 -56 -3 -39 -7 -46 -30 -54 -22 -8
-32 -6 -48 9 -29 26 -28 89 2 109 23 16 57 12 71 -8z"/>
<path d="M7486 1242 c-2 -4 -5 -56 -5 -115 -1 -88 2 -107 14 -107 12 0 15 13
15 58 0 64 11 82 51 82 32 0 39 -14 39 -86 0 -30 5 -54 10 -54 17 0 12 113 -6
139 -16 22 -32 24 -84 10 -11 -3 -13 5 -11 32 2 35 -11 59 -23 41z"/>
<path d="M8797 1243 c-2 -5 -5 -56 -5 -115 l-2 -108 38 -1 c55 -2 65 1 87 22
26 26 26 90 0 119 -17 19 -27 21 -63 16 l-44 -6 5 35 c4 32 -6 56 -16 38z
m109 -108 c30 -46 0 -105 -55 -105 -26 0 -33 12 -33 65 0 56 6 65 42 65 20 0
35 -8 46 -25z"/>
<path d="M5380 1230 c0 -5 5 -10 10 -10 6 0 10 5 10 10 0 6 -4 10 -10 10 -5 0
-10 -4 -10 -10z"/>
<path d="M7080 1200 c0 -10 -8 -23 -17 -29 -17 -9 -17 -10 0 -16 13 -6 17 -19
17 -59 0 -70 10 -82 65 -76 14 1 11 5 -12 11 -32 9 -33 11 -33 65 0 47 3 56
23 64 l22 9 -22 0 c-18 1 -23 7 -23 26 0 14 -4 25 -10 25 -5 0 -10 -9 -10 -20z"/>
<path d="M10180 1200 c0 -11 -7 -23 -16 -27 -15 -5 -15 -7 0 -15 12 -7 16 -24
16 -63 0 -47 3 -57 24 -71 17 -11 30 -13 42 -6 13 7 11 10 -15 15 -30 6 -31 8
-31 62 0 48 3 57 23 65 l22 9 -22 0 c-18 1 -23 7 -23 26 0 14 -4 25 -10 25 -5
0 -10 -9 -10 -20z"/>
<path d="M4056 1164 c-3 -9 -6 -45 -6 -80 0 -50 3 -64 15 -64 12 0 15 16 15
80 0 75 -10 101 -24 64z"/>
<path d="M4428 1171 c-7 -21 4 -151 13 -151 5 0 9 27 9 60 0 63 13 80 58 80
25 0 32 -18 32 -86 0 -30 5 -54 10 -54 17 0 12 126 -6 144 -18 19 -55 21 -72
4 -8 -8 -15 -8 -26 1 -9 7 -15 8 -18 2z"/>
<path d="M5380 1100 c0 -47 4 -80 10 -80 6 0 10 33 10 80 0 47 -4 80 -10 80
-6 0 -10 -33 -10 -80z"/>
<path d="M5750 1100 c0 -47 4 -80 10 -80 6 0 10 24 10 53 0 61 22 91 62 85 21
-3 23 -8 26 -70 2 -38 7 -68 12 -68 13 0 13 116 0 141 -12 22 -59 26 -79 7
-11 -10 -14 -10 -18 0 -13 34 -23 4 -23 -68z"/>
<path d="M6234 1155 c-30 -30 -31 -73 -3 -109 22 -28 66 -35 87 -14 9 9 12 7
12 -11 0 -44 -18 -61 -63 -62 -37 0 -39 -2 -20 -11 26 -12 65 -4 87 18 12 12
16 38 16 113 l0 97 -46 2 c-36 1 -50 -3 -70 -23z m91 -55 l0 -55 -35 -3 c-38
-4 -60 16 -60 56 0 45 18 63 58 60 l37 -3 0 -55z"/>
<path d="M7960 1148 c-25 -42 -25 -69 0 -100 20 -27 58 -39 91 -31 33 9 21 22
-15 16 -26 -4 -39 0 -55 16 -33 33 -26 41 39 41 59 0 60 0 60 28 0 37 -28 62
-68 62 -26 0 -36 -7 -52 -32z m95 -19 c0 -20 -5 -24 -30 -25 -54 -3 -66 4 -53
31 19 42 83 38 83 -6z"/>
<path d="M9281 1159 c-23 -25 -28 -77 -10 -110 13 -25 53 -41 85 -33 35 9 30
25 -6 17 -22 -4 -36 0 -50 12 -35 32 -25 45 35 45 65 0 79 17 48 58 -27 36
-74 41 -102 11z m89 -20 c15 -26 12 -29 -39 -33 -30 -2 -44 1 -48 10 -15 41
67 62 87 23z"/>
<path d="M9735 1160 c-23 -26 -13 -48 30 -66 64 -26 55 -70 -12 -60 -40 6 -44
-9 -5 -17 72 -14 107 53 43 85 -52 26 -59 37 -37 53 11 8 29 12 43 9 14 -4 23
-2 23 5 0 19 -65 13 -85 -9z"/>
</g>
</svg>
